<svg width="28" height="11" viewBox="0 0 28 11" fill="none" xmlns="http://www.w3.org/2000/svg">
<path d="M0.894622 10.2617L0.738462 1.31528L3.27104 1.27107C3.89757 1.26013 4.37453 1.30675 4.70192 1.41091C5.13158 1.54585 5.50635 1.79977 5.82622 2.17266C6.14609 2.54555 6.39854 3.01932 6.58356 3.59398C6.76852 4.16457 6.86788 4.8445 6.88166 5.63377C6.89934 6.6468 6.76587 7.50985 6.48123 8.22294C6.19652 8.93195 5.82283 9.43904 5.36015 9.7442C4.90146 10.0452 4.2958 10.2023 3.54314 10.2154L0.894622 10.2617ZM1.8465 9.18898L3.40877 9.16171C4.03937 9.15071 4.51563 9.04065 4.83755 8.83155C5.1594 8.61838 5.40382 8.28244 5.5708 7.82373C5.79212 7.21349 5.89539 6.48526 5.88062 5.63903C5.86479 4.73178 5.72827 4.02198 5.47108 3.50963C5.21789 2.99313 4.89652 2.65079 4.50697 2.48259C4.24453 2.36916 3.83056 2.31737 3.26505 2.32724L1.7272 2.35409L1.8465 9.18898ZM7.68436 10.1432L7.5282 1.19676L10.7809 1.13998C11.4603 1.12813 11.9622 1.20279 12.2865 1.36399C12.6149 1.52511 12.8862 1.79914 13.1005 2.18609C13.3147 2.56896 13.4263 3.01671 13.4353 3.52933C13.4471 4.20468 13.2797 4.75497 12.933 5.18019C12.5904 5.60534 12.0845 5.88073 11.4152 6.00636C11.6906 6.16434 11.901 6.32549 12.0463 6.48981C12.3411 6.82651 12.602 7.20247 12.8291 7.61768L14.1531 10.0302L12.9326 10.0515L11.9237 8.2073C11.5326 7.48566 11.2372 7.00043 11.0375 6.75159C10.8419 6.50269 10.6518 6.33712 10.4673 6.25488C10.2867 6.1685 10.0337 6.12815 9.7082 6.13383L8.58533 6.15343L8.65467 10.1262L7.68436 10.1432ZM8.56743 5.1282L10.6545 5.09177C11.1102 5.08381 11.455 5.02285 11.6891 4.90889C11.9231 4.79492 12.1073 4.61875 12.2415 4.38037C12.3757 4.14199 12.44 3.86616 12.4346 3.5529C12.4267 3.10131 12.2883 2.74966 12.0194 2.49797C11.7504 2.24221 11.3555 2.11887 10.8347 2.12796L8.51577 2.16844L8.56743 5.1282ZM13.6563 10.0389L16.3196 1.04331L17.3631 1.02509L20.5218 9.91907L19.4111 9.93846L18.5094 7.24383L15.4459 7.2973L14.6877 10.0209L13.6563 10.0389ZM15.7098 6.32819L18.1936 6.28484L17.3875 3.8205C17.1383 3.06383 16.9546 2.44845 16.8364 1.97437C16.7528 2.54965 16.6306 3.12153 16.4696 3.69002L15.7098 6.32819ZM24.0647 6.34718L24.0464 5.29753L27.1525 5.23721L27.2104 8.55702C26.7425 9.02912 26.2564 9.3876 25.7519 9.63244C25.2474 9.87321 24.7267 9.99829 24.1896 10.0077C23.4736 10.0202 22.8317 9.8523 22.264 9.50408C21.6964 9.15586 21.2417 8.64085 20.9002 7.95905C20.5627 7.27717 20.3856 6.45413 20.3688 5.48992C20.3517 4.5135 20.5016 3.66033 20.8185 2.93041C21.1354 2.20048 21.5574 1.66 22.0844 1.30895C22.6113 0.953832 23.2389 0.769918 23.9671 0.757207C24.5042 0.747833 24.9758 0.839306 25.382 1.03163C25.7883 1.22395 26.1248 1.50091 26.3916 1.86252C26.6583 2.22413 26.8624 2.72317 27.0037 3.35964L26.1362 3.66779C26.0094 3.16537 25.8543 2.79164 25.671 2.54659C25.4876 2.29747 25.2482 2.10428 24.9527 1.967C24.6573 1.82972 24.3266 1.76427 23.9604 1.77066C23.4274 1.77996 22.97 1.91818 22.588 2.1853C22.2101 2.44829 21.9079 2.85442 21.6814 3.4037C21.459 3.95291 21.3547 4.62012 21.3684 5.40532C21.3893 6.60143 21.6551 7.49414 22.166 8.08346C22.6768 8.66871 23.3329 8.95434 24.1344 8.94035C24.5168 8.93367 24.9058 8.83532 25.3013 8.64528C25.7009 8.45517 26.0164 8.23194 26.248 7.97558L26.2189 6.30957L24.0647 6.34718Z" fill="#C0C0BD"/>
</svg>
