<svg width="227" height="176" viewBox="0 0 227 176" fill="none" xmlns="http://www.w3.org/2000/svg">
<g filter="url(#filter0_d_47_2)">
<path d="M109.944 44.0284C110.27 39.6268 116.73 39.6268 117.056 44.0284V44.0284C117.33 47.7263 122.372 48.5971 123.862 45.2014L124.325 44.144C126.057 40.1966 132.003 42.3103 130.855 46.4649V46.4649C129.878 49.999 134.332 52.4396 136.785 49.7145L171.24 11.4358L158.669 29.8478C153.038 38.0962 162.606 48.2082 171.153 43.0408L193.638 29.4467L176.701 42.7767C168.724 49.0551 175.152 61.7491 184.934 59.0343L208.915 52.3789L188.894 60.5069C179.393 64.3641 182.223 78.5058 192.476 78.4106L215.713 78.1948L193.356 80.9034C183.155 82.1392 182.207 96.5702 192.159 99.1297L213.43 104.601L189.61 101.262C179.497 99.8452 174.829 113.408 183.673 118.514L202.268 129.25L178.689 119.138C169.429 115.167 161.354 126.707 168.257 134.046L183.218 149.953L162.604 133.016C154.958 126.734 144.096 135.165 148.284 144.13L157.973 164.869L130.523 122.624C128.508 119.524 123.687 121.215 124.051 124.895V124.895C124.481 129.246 118.063 129.885 117.001 125.644V125.644C116.098 122.036 110.902 122.036 109.999 125.644V125.644C108.937 129.885 102.519 129.246 102.949 124.895V124.895C103.313 121.215 98.4921 119.524 96.4774 122.624L69.0269 164.869L78.7157 144.13C82.9042 135.165 72.0424 126.734 64.3963 133.016L43.7823 149.953L58.7434 134.046C65.6462 126.707 57.5706 115.167 48.311 119.138L24.7324 129.25L43.3267 118.514C52.1706 113.408 47.5035 99.8452 37.39 101.262L13.5699 104.601L34.8413 99.1297C44.7927 96.5702 43.8448 82.1392 33.6441 80.9034L11.2866 78.1948L34.5237 78.4106C44.7773 78.5058 47.6067 64.3641 38.1058 60.5069L18.0854 52.3789L42.0663 59.0343C51.8482 61.7492 58.2764 49.0551 50.2992 42.7767L33.3623 29.4467L55.8474 43.0408C64.3944 48.2082 73.9623 38.0962 68.3306 29.8478L55.7597 11.4358L90.2147 49.7145C92.6677 52.4396 97.1218 49.999 96.145 46.4649V46.4649C94.9967 42.3103 100.943 40.1967 102.675 44.144L103.138 45.2014C104.628 48.5971 109.67 47.7263 109.944 44.0284V44.0284Z" fill="url(#paint0_radial_47_2)" shape-rendering="crispEdges"/>
</g>
<defs>
<filter id="filter0_d_47_2" x="0.353776" y="0.502458" width="226.292" height="175.301" filterUnits="userSpaceOnUse" color-interpolation-filters="sRGB">
<feFlood flood-opacity="0" result="BackgroundImageFix"/>
<feColorMatrix in="SourceAlpha" type="matrix" values="0 0 0 0 0 0 0 0 0 0 0 0 0 0 0 0 0 0 127 0" result="hardAlpha"/>
<feOffset/>
<feGaussianBlur stdDeviation="5.46667"/>
<feComposite in2="hardAlpha" operator="out"/>
<feColorMatrix type="matrix" values="0 0 0 0 0 0 0 0 0 0 0 0 0 0 0 0 0 0 0.5 0"/>
<feBlend mode="normal" in2="BackgroundImageFix" result="effect1_dropShadow_47_2"/>
<feBlend mode="normal" in="SourceGraphic" in2="effect1_dropShadow_47_2" result="shape"/>
</filter>
<radialGradient id="paint0_radial_47_2" cx="0" cy="0" r="1" gradientUnits="userSpaceOnUse" gradientTransform="translate(113.5 84.8333) rotate(90) scale(88.8333 102.5)">
<stop offset="0.354167" stop-color="white"/>
<stop offset="0.932292" stop-color="white" stop-opacity="0"/>
</radialGradient>
</defs>
</svg>
