<svg width="227" height="115" viewBox="0 0 227 115" fill="none" xmlns="http://www.w3.org/2000/svg">
<g filter="url(#filter0_d_28_152)">
<path d="M109.944 -16.9716C110.27 -21.3732 116.73 -21.3732 117.056 -16.9716V-16.9716C117.33 -13.2737 122.372 -12.4029 123.862 -15.7986L124.325 -16.856C126.057 -20.8034 132.003 -18.6897 130.855 -14.5351V-14.5351C129.878 -11.001 134.332 -8.56039 136.785 -11.2855L171.24 -49.5642L158.669 -31.1522C153.038 -22.9038 162.606 -12.7918 171.153 -17.9592L193.638 -31.5533L176.701 -18.2233C168.724 -11.9449 175.152 0.74915 184.934 -1.96566L208.915 -8.62112L188.894 -0.493139C179.393 3.3641 182.223 17.5058 192.476 17.4106L215.713 17.1948L193.356 19.9034C183.155 21.1392 182.207 35.5702 192.159 38.1297L213.43 43.6006L189.61 40.2625C179.497 38.8452 174.829 52.4077 183.673 57.514L202.268 68.25L178.689 58.138C169.429 54.167 161.354 65.7072 168.257 73.0462L183.218 88.9528L162.604 72.0163C154.958 65.7342 144.096 74.1647 148.284 83.1305L157.973 103.869L130.523 61.6244C128.508 58.524 123.687 60.2153 124.051 63.8948V63.8948C124.481 68.2461 118.063 68.8852 117.001 64.6436V64.6436C116.098 61.0356 110.902 61.0356 109.999 64.6436V64.6436C108.937 68.8852 102.519 68.2461 102.949 63.8948V63.8948C103.313 60.2153 98.4921 58.524 96.4774 61.6244L69.0269 103.869L78.7157 83.1305C82.9042 74.1647 72.0424 65.7342 64.3963 72.0163L43.7823 88.9528L58.7434 73.0462C65.6462 65.7072 57.5706 54.167 48.311 58.1381L24.7324 68.25L43.3267 57.514C52.1706 52.4077 47.5035 38.8452 37.39 40.2625L13.5699 43.6006L34.8413 38.1297C44.7927 35.5702 43.8448 21.1392 33.6441 19.9034L11.2866 17.1948L34.5237 17.4106C44.7773 17.5058 47.6067 3.3641 38.1058 -0.493137L18.0854 -8.62112L42.0663 -1.96565C51.8482 0.749152 58.2764 -11.9449 50.2992 -18.2233L33.3623 -31.5533L55.8474 -17.9592C64.3944 -12.7918 73.9623 -22.9038 68.3306 -31.1522L55.7597 -49.5642L90.2147 -11.2855C92.6677 -8.56038 97.1218 -11.001 96.145 -14.5351V-14.5351C94.9967 -18.6897 100.943 -20.8033 102.675 -16.856L103.138 -15.7986C104.628 -12.4029 109.67 -13.2737 109.944 -16.9716V-16.9716Z" fill="url(#paint0_radial_28_152)" shape-rendering="crispEdges"/>
</g>
<defs>
<filter id="filter0_d_28_152" x="0.353776" y="-60.4975" width="226.292" height="175.301" filterUnits="userSpaceOnUse" color-interpolation-filters="sRGB">
<feFlood flood-opacity="0" result="BackgroundImageFix"/>
<feColorMatrix in="SourceAlpha" type="matrix" values="0 0 0 0 0 0 0 0 0 0 0 0 0 0 0 0 0 0 127 0" result="hardAlpha"/>
<feOffset/>
<feGaussianBlur stdDeviation="5.46667"/>
<feComposite in2="hardAlpha" operator="out"/>
<feColorMatrix type="matrix" values="0 0 0 0 0 0 0 0 0 0 0 0 0 0 0 0 0 0 0.5 0"/>
<feBlend mode="normal" in2="BackgroundImageFix" result="effect1_dropShadow_28_152"/>
<feBlend mode="normal" in="SourceGraphic" in2="effect1_dropShadow_28_152" result="shape"/>
</filter>
<radialGradient id="paint0_radial_28_152" cx="0" cy="0" r="1" gradientUnits="userSpaceOnUse" gradientTransform="translate(113.5 23.8333) rotate(90) scale(88.8333 102.5)">
<stop offset="0.354167" stop-color="white"/>
<stop offset="0.932292" stop-color="white" stop-opacity="0"/>
</radialGradient>
</defs>
</svg>
